<svg width="247" height="247" viewBox="0 0 247 247" fill="none" xmlns="http://www.w3.org/2000/svg">
<rect width="247" height="247" rx="10" fill="#FF383C"/>
<path d="M119.677 183.233C104.134 183.233 90.3952 176.931 81.7555 167.245L63.0508 189.044C77.1016 202.494 97.2313 211 119.677 211C142.123 211 162.252 202.516 176.303 189.044L157.598 167.245C148.981 176.931 135.22 183.233 119.677 183.233Z" fill="white"/>
<path d="M185.054 37.336H132.369C128.272 36.4676 124.041 36 119.677 36C111.371 36 103.488 37.6033 96.2737 40.7875C89.0813 43.9495 82.7351 48.3807 77.4131 53.903C72.1135 59.4254 67.8827 65.9052 64.832 73.1867C61.7814 80.4904 60.2227 88.4844 60.2227 96.9015C60.2227 105.319 61.7591 113.313 64.8098 120.705C67.8604 128.076 72.0912 134.6 77.4131 140.034C82.7351 145.489 89.059 149.854 96.2514 153.016C103.488 156.2 111.349 157.825 119.655 157.825C127.96 157.825 135.821 156.222 143.058 153.016C150.25 149.854 156.596 145.467 161.896 140.034C167.218 134.578 171.449 128.076 174.499 120.705C177.55 113.313 179.086 105.319 179.086 96.9015C179.086 88.4844 177.55 80.5127 174.499 73.1867C173.297 70.3142 171.849 67.5975 170.291 64.97H185.054V37.3138V37.336ZM146.977 110.485C145.596 114.493 143.614 117.944 141.143 120.728C138.671 123.467 135.598 125.693 131.991 127.319C128.383 128.922 124.264 129.746 119.699 129.746C115.134 129.746 110.992 128.922 107.385 127.319C103.778 125.716 100.705 123.489 98.2332 120.75C95.7393 117.967 93.7797 114.537 92.3769 110.507C90.9518 106.41 90.2392 101.845 90.2392 96.9461C90.2392 92.0472 90.9518 87.4824 92.3769 83.3852C93.7797 79.377 95.7393 75.9256 98.2332 73.1644C100.683 70.4255 103.756 68.1988 107.385 66.5732C110.992 64.97 115.134 64.1461 119.699 64.1461C124.264 64.1461 128.383 64.97 131.991 66.5732C135.598 68.1988 138.671 70.4032 141.143 73.1644C143.637 75.9478 145.596 79.377 146.999 83.3852C148.424 87.5047 149.137 92.0695 149.137 96.9461C149.137 101.823 148.424 106.41 146.999 110.507L146.977 110.485Z" fill="white"/>
</svg>
