<svg width="779" height="467" viewBox="0 0 779 467" fill="none" xmlns="http://www.w3.org/2000/svg">
<path d="M123.48 402.615C93.281 402.615 66.586 390.377 49.7989 371.568L13.4557 413.9C40.7563 440.018 79.8686 456.536 123.48 456.536C167.092 456.536 206.205 440.061 233.505 413.9L197.162 371.568C180.418 390.377 153.68 402.615 123.48 402.615Z" fill="white"/>
<path d="M250.509 119.301H148.142C140.181 117.615 131.961 116.707 123.48 116.707C107.342 116.707 92.0263 119.82 78.0082 126.004C64.0333 132.144 51.7026 140.749 41.3621 151.472C31.0648 162.196 22.8443 174.779 16.9169 188.919C10.9895 203.102 7.9609 218.625 7.9609 234.97C7.9609 251.315 10.9462 266.839 16.8736 281.195C22.8011 295.507 31.0215 308.177 41.3621 318.728C51.7026 329.322 63.9901 337.797 77.9649 343.937C92.0263 350.12 107.299 353.277 123.437 353.277C139.575 353.277 154.848 350.164 168.91 343.937C182.884 337.797 195.215 329.278 205.512 318.728C215.853 308.134 224.073 295.507 230.001 281.195C235.928 266.839 238.914 251.315 238.914 234.97C238.914 218.625 235.928 203.145 230.001 188.919C227.664 183.341 224.852 178.065 221.824 172.963H250.509V119.258V119.301ZM176.524 261.347C173.842 269.13 169.991 275.833 165.189 281.238C160.386 286.556 154.416 290.88 147.406 294.037C140.397 297.15 132.393 298.75 123.524 298.75C114.654 298.75 106.607 297.15 99.5978 294.037C92.5887 290.924 86.6181 286.6 81.8156 281.281C76.9698 275.876 73.1624 269.217 70.4367 261.39C67.6677 253.434 66.2831 244.57 66.2831 235.057C66.2831 225.544 67.6677 216.679 70.4367 208.723C73.1624 200.94 76.9698 194.237 81.8156 188.876C86.5748 183.557 92.5455 179.233 99.5978 176.076C106.607 172.963 114.654 171.363 123.524 171.363C132.393 171.363 140.397 172.963 147.406 176.076C154.416 179.233 160.386 183.514 165.189 188.876C170.034 194.281 173.842 200.94 176.568 208.723C179.337 216.723 180.721 225.587 180.721 235.057C180.721 244.526 179.337 253.434 176.568 261.39L176.524 261.347Z" fill="white"/>
<path d="M654.395 349.212C638.256 349.212 622.984 346.099 608.922 339.872C594.947 333.732 582.617 325.214 572.319 314.663C561.979 304.112 553.758 291.486 547.831 277.13C541.904 262.774 538.918 247.251 538.918 230.906C538.918 214.561 541.947 199.08 547.874 184.854C553.758 170.714 561.979 158.131 572.319 147.408C582.66 136.641 594.991 128.079 608.966 121.939C622.984 115.755 638.3 112.642 654.438 112.642C670.576 112.642 685.849 115.755 699.91 121.939C713.885 128.079 726.216 136.641 736.556 147.408C746.854 158.131 755.074 170.758 761.001 184.854C766.929 199.08 769.914 214.561 769.914 230.906C769.914 247.251 766.929 262.774 761.001 277.13C755.074 291.443 746.854 304.069 736.513 314.663C726.173 325.214 713.885 333.732 699.91 339.872C685.849 346.056 670.576 349.212 654.438 349.212H654.395ZM654.395 167.212C645.525 167.212 637.478 168.812 630.469 171.925C623.46 175.082 617.489 179.363 612.686 184.724C607.841 190.13 604.033 196.789 601.308 204.572C598.539 212.528 597.154 221.393 597.154 230.906C597.154 240.419 598.539 249.283 601.308 257.239C604.033 265.023 607.841 271.725 612.686 277.13C617.446 282.449 623.46 286.773 630.469 289.886C637.478 293.043 645.525 294.599 654.395 294.599C663.264 294.599 671.311 292.999 678.277 289.886C685.286 286.729 691.257 282.449 696.06 277.087C700.905 271.682 704.713 264.979 707.395 257.196C710.164 249.24 711.549 240.375 711.549 230.862C711.549 221.349 710.164 212.485 707.395 204.529C704.669 196.745 700.862 190.086 696.016 184.681C691.257 179.363 685.243 175.039 678.234 171.882C671.225 168.769 663.178 167.169 654.351 167.169L654.395 167.212Z" fill="white"/>
<path d="M450.916 349.212V123.193H506.642V349.212H450.916ZM478.779 95.0864C468.698 95.0864 459.958 91.2812 452.733 83.8006C445.594 76.4064 442.003 67.4556 442.003 57.2507C442.003 47.0459 445.594 38.0951 452.733 30.7009C459.915 23.2203 468.698 19.4151 478.779 19.4151C488.86 19.4151 497.6 23.2203 504.825 30.7009C511.92 38.0951 515.555 47.0459 515.555 57.2507C515.555 67.4556 511.964 76.4064 504.825 83.8006C497.6 91.2812 488.86 95.0864 478.779 95.0864Z" fill="white"/>
<path d="M285.165 349.515V123.496H336.218L340.891 138.976C344.525 135.646 348.419 132.663 352.616 130.068C358.457 126.479 364.903 123.582 371.826 121.42C378.835 119.258 385.974 118.177 393.069 118.177C400.165 118.177 406.914 119.215 412.885 121.29L419.072 123.452L416.693 183.816L405.919 180.746C403.064 179.925 400.208 179.276 397.396 178.714C394.8 178.238 392.247 177.979 389.738 177.979C373.557 177.979 361.702 182.346 353.525 191.384C345.217 200.507 341.021 215.512 341.021 236.008V349.472H285.294L285.165 349.515Z" fill="white"/>
<path d="M478.779 104.037C504.633 104.037 525.592 83.0902 525.592 57.2507C525.592 31.4113 504.633 10.4642 478.779 10.4642C452.924 10.4642 431.965 31.4113 431.965 57.2507C431.965 83.0902 452.924 104.037 478.779 104.037Z" fill="#F21825"/>
</svg>
